# xmcd
#
# Track frame offsets:
# 150
# 17983
# 35046
# 49921
# 69211
# 84682
# 106037
# 124407
# 138038
# 153263
# 176703
# 191380
# 202335
# 212628
# 230135
# 252633
# 264517
# 269984
# 285920
# 299589
# 314816
# 334039
#
# Disc length: 4674 seconds
#
#
# Revision: 0
# Processed by: cddbd v1.5.2PL0 Copyright (c) Steve Scherf et al.
# Submitted via: FreeRIP 2.945 
#
DISCID=62124016
DTITLE=none - useless
DYEAR=2000
DGENRE=Bluegrass
TTITLE0=Sundown
TTITLE1=Ready to Run
TTITLE2=Chevrolett (vinyl)
TTITLE3=Goodbye Earl
TTITLE4=Steve Threw Up
TTITLE5=Cowboy Take Me
TTITLE6=Mixed Buissness (moby?)
TTITLE7=If I Fall
TTITLE8=Certified Blues (vinyl)
TTITLE9=Cold Day In July
TTITLE10=American Car (Steve with Beck)
TTITLE11=Somedays You Gotta Dance
TTITLE12=Neighbor Neighbor
TTITLE13=Heartbreak Town
TTITLE14=Vibrator Dependant (vinyl)
TTITLE15=Interactive [CD rom)
TTITLE16=Rockline (rockline)
TTITLE17=Lump (rockline)
TTITLE18=Dune Buggy (rockline)
TTITLE19=Peaches (rockline)
TTITLE20=Lousiana Liplock (vinyl)
TTITLE21=Godzilla
EXTD=
EXTT0=
EXTT1=
EXTT2=
EXTT3=
EXTT4=
EXTT5=
EXTT6=
EXTT7=
EXTT8=
EXTT9=
EXTT10=
EXTT11=
EXTT12=
EXTT13=
EXTT14=
EXTT15=
EXTT16=
EXTT17=
EXTT18=
EXTT19=
EXTT20=
EXTT21=
PLAYORDER=
